<svg xmlns="http://www.w3.org/2000/svg" viewBox="0 0 355.2539 259.5691"><defs><style>.cls-1{fill:#dff6fd;}.cls-2{fill:#ffae00;}</style></defs><g id="Layer_2" data-name="Layer 2"><g id="graphics"><path class="cls-1" d="M19.57,248.407l9.668-32.08h9.7851L24.17,258.9831H15L.2051,216.3269H9.9609Z" transform="translate(-0.2051)"/><path class="cls-1" d="M51.8262,243.9538v15.0293H43.0371V216.3269H59.6777a19.2523,19.2523,0,0,1,8.4522,1.7578,12.9536,12.9536,0,0,1,5.61,4.9951,13.9326,13.9326,0,0,1,1.9629,7.3682,12.2492,12.2492,0,0,1-4.292,9.8877q-4.2919,3.6182-11.88,3.6181Zm0-7.1191h7.8515a7.72,7.72,0,0,0,5.3174-1.6406,5.9689,5.9689,0,0,0,1.8311-4.6875,7.0363,7.0363,0,0,0-1.8457-5.0684,6.8951,6.8951,0,0,0-5.0977-1.9922H51.8262Z" transform="translate(-0.2051)"/><path class="cls-1" d="M100.6055,250.1941h-15.41l-2.93,8.789H72.92l15.8789-42.6562h8.1446L112.91,258.9831h-9.3457Zm-13.0371-7.1192h10.664l-5.3613-15.9668Z" transform="translate(-0.2051)"/><path class="cls-1" d="M139.0137,247.7917a4.51,4.51,0,0,0-1.7578-3.8232,23.0551,23.0551,0,0,0-6.3282-2.8125,44.8458,44.8458,0,0,1-7.2363-2.915q-7.2663-3.9258-7.2656-10.5762a10.2974,10.2974,0,0,1,1.9482-6.167,12.7083,12.7083,0,0,1,5.5957-4.2334,21.0607,21.0607,0,0,1,8.1885-1.5234,19.1721,19.1721,0,0,1,8.1445,1.6552,12.969,12.969,0,0,1,5.5518,4.6729,12.227,12.227,0,0,1,1.9775,6.8554h-8.789a5.7521,5.7521,0,0,0-1.8457-4.5556,7.5872,7.5872,0,0,0-5.1856-1.626,8.1038,8.1038,0,0,0-5.01,1.3623,4.2968,4.2968,0,0,0-1.7872,3.5889A4.1155,4.1155,0,0,0,127.31,231.18a23.6573,23.6573,0,0,0,6.167,2.6367q7.4993,2.2558,10.9277,5.5957a11.1438,11.1438,0,0,1,3.4277,8.32,10.2657,10.2657,0,0,1-4.1894,8.6866q-4.19,3.1494-11.2793,3.1494a21.7807,21.7807,0,0,1-8.9649-1.8018,14.187,14.187,0,0,1-6.167-4.9365,12.6382,12.6382,0,0,1-2.124-7.2656h8.8184q0,7.06,8.4375,7.06a8.2081,8.2081,0,0,0,4.8926-1.2744A4.1463,4.1463,0,0,0,139.0137,247.7917Z" transform="translate(-0.2051)"/><path class="cls-1" d="M175.8984,247.7917a4.51,4.51,0,0,0-1.7578-3.8232,23.0527,23.0527,0,0,0-6.3281-2.8125,44.8381,44.8381,0,0,1-7.2363-2.915q-7.2664-3.9258-7.2657-10.5762a10.2974,10.2974,0,0,1,1.9483-6.167,12.7077,12.7077,0,0,1,5.5957-4.2334,21.06,21.06,0,0,1,8.1885-1.5234,19.1724,19.1724,0,0,1,8.1445,1.6552,12.969,12.969,0,0,1,5.5518,4.6729,12.2278,12.2278,0,0,1,1.9775,6.8554h-8.7891a5.7518,5.7518,0,0,0-1.8457-4.5556,7.5869,7.5869,0,0,0-5.1855-1.626,8.1041,8.1041,0,0,0-5.01,1.3623,4.2969,4.2969,0,0,0-1.7871,3.5889,4.1156,4.1156,0,0,0,2.0947,3.4863,23.6589,23.6589,0,0,0,6.167,2.6367q7.4993,2.2558,10.9278,5.5957a11.1442,11.1442,0,0,1,3.4277,8.32,10.2655,10.2655,0,0,1-4.19,8.6866q-4.19,3.1494-11.2793,3.1494a21.78,21.78,0,0,1-8.9648-1.8018,14.1865,14.1865,0,0,1-6.167-4.9365,12.6382,12.6382,0,0,1-2.124-7.2656h8.8183q0,7.06,8.4375,7.06a8.2077,8.2077,0,0,0,4.8926-1.2744A4.146,4.146,0,0,0,175.8984,247.7917Z" transform="translate(-0.2051)"/><path class="cls-1" d="M223.8867,246.6785l5.7422-30.3516h8.76l-9.4629,42.6562h-8.8477l-6.9433-28.5351-6.9434,28.5351h-8.8476l-9.4629-42.6562h8.76l5.7715,30.293,7.0313-30.293h7.4414Z" transform="translate(-0.2051)"/><path class="cls-1" d="M278.1738,238.6218a25.7647,25.7647,0,0,1-2.2265,11.0449,16.7686,16.7686,0,0,1-6.3721,7.3243,18.8287,18.8287,0,0,1-18.97.0292,16.9318,16.9318,0,0,1-6.4453-7.28,25,25,0,0,1-2.3145-10.8838v-2.1094a25.6151,25.6151,0,0,1,2.27-11.0889,16.8935,16.8935,0,0,1,6.416-7.3535,18.8022,18.8022,0,0,1,18.9551,0,16.9055,16.9055,0,0,1,6.416,7.3535,25.5568,25.5568,0,0,1,2.2705,11.06Zm-8.9062-1.9336q0-6.7089-2.4024-10.1953a8.4863,8.4863,0,0,0-13.6816-.0439q-2.4024,3.4423-2.4316,10.0927v2.08q0,6.5333,2.4023,10.1367a8.4123,8.4123,0,0,0,13.7109.1319q2.3731-3.4718,2.4024-10.1221Z" transform="translate(-0.2051)"/><path class="cls-1" d="M300.3516,243.3679H293.35v15.6152h-8.7891V216.3269h15.85q7.5585,0,11.66,3.3691t4.1016,9.5215a13.1232,13.1232,0,0,1-1.89,7.28,12.8871,12.8871,0,0,1-5.7275,4.6435l9.2285,17.4317v.41H308.35Zm-7.002-7.1191h7.09a7.2608,7.2608,0,0,0,5.1269-1.6846,6.0213,6.0213,0,0,0,1.8164-4.6436,6.445,6.445,0,0,0-1.7139-4.7461q-1.7138-1.7284-5.2587-1.7285H293.35Z" transform="translate(-0.2051)"/><path class="cls-1" d="M322.8516,258.9831V216.3269h13.125a19.931,19.931,0,0,1,10.0634,2.5342,17.6715,17.6715,0,0,1,6.9288,7.207,22.2412,22.2412,0,0,1,2.49,10.62v1.9629a22.3034,22.3034,0,0,1-2.4463,10.5762,17.52,17.52,0,0,1-6.8994,7.1777,20.0848,20.0848,0,0,1-10.0488,2.5781Zm8.789-35.5371v28.4766h4.2481q5.1563,0,7.8808-3.3691t2.7832-9.6387v-2.2559q0-6.5038-2.6953-9.8584t-7.8808-3.3545Z" transform="translate(-0.2051)"/><path class="cls-2" d="M224.5127,160.82c-19.06.1992-35.2236-7.2988-45.5147-21.1152-12.86-17.2686-15.0376-42.5762-6.1347-71.2627a2.4386,2.4386,0,0,0-1.4346-2.9805c-29.4043-11.4707-53.8857-1.1162-70.8,29.9444a2.4388,2.4388,0,0,0-.2656,1.5459c7.312,45.6533,48.1377,79.3877,83.9048,95.7363a.28.28,0,0,1,.0332.0078,2.4579,2.4579,0,0,0,1.9174.02c13.793-5.8008,28.3916-15.9209,40.05-27.7676A2.4293,2.4293,0,0,0,224.5127,160.82ZM105.292,96.9988c15.2681-27.5429,36.06-36.9375,61.8379-27.9521-11.9038,23.3721-17.2129,43.7734-16.2246,62.3086l0,.0058c.96,18.043,8.1035,34.4864,21.7446,49.9258C142.1841,163.952,111.6968,134.69,105.292,96.9988Zm80.4521,90.6084C166.4248,170,156.8672,152.0106,155.7534,131.1033v-.0058c-.6811-12.7852,1.8364-26.5948,7.6377-41.8116a96.9669,96.9669,0,0,0-.6465,16.7471c.7515,14.0938,4.8965,26.5459,12.3609,36.57,10.1684,13.6514,25.5039,21.6573,43.62,22.9014A123.3409,123.3409,0,0,1,185.7441,187.6072Z" transform="translate(-0.2051)"/><path class="cls-2" d="M141.3765,53.0384c21.3842-2.5044,44.39,8.2612,64.7817,30.3188.0078.0078.0195.0147.0273.0225a2.43,2.43,0,0,0,3.2715.2227c14.9854-12.001,22.1446-26.3125,21.2813-42.5367-.5586-10.48-4.5332-21.8349-11.8145-33.75a2.4452,2.4452,0,0,0-1.2051-1.0029c-43.1923-16.4917-92.82,1.9951-124.8623,24.7964a2.4785,2.4785,0,0,0-1.0034,1.6743,112.9737,112.9737,0,0,0-.6137,19.9575,135.8122,135.8122,0,0,0,4.64,28.6114,2.4287,2.4287,0,0,0,4.4531.5439C109.688,65.2918,124.2642,55.0428,141.3765,53.0384Zm73.8354-42.4805c6.584,10.957,10.1748,21.3032,10.6787,30.7671.7354,13.8125-5.1113,26.169-17.3887,36.76-28.125-43.293-59.4736-59.5723-99.9462-51.3452C138.7974,9.0262,179.375-2.74,215.2119,10.5579ZM99.167,74.5418a123.4421,123.4421,0,0,1-2.648-39.6157c38.9434-12.3657,69.3326-3.187,96.2105,29.6977-16.9009-12.645-34.8242-18.4087-51.9185-16.4067C123.9067,50.1971,109.3057,59.4754,99.167,74.5418Z" transform="translate(-0.2051)"/><path class="cls-2" d="M279.0215,39.8826c-.2276-4.2783-.5391-7.1855-.5391-7.1855a2.5149,2.5149,0,0,0-.9394-1.668c-11.9239-9.0469-27.9873-16.6279-44.0733-20.8a2.43,2.43,0,0,0-2.6992,3.5855c9.7041,16.4067,11.29,34.1533,4.4707,49.9736C226.7168,83.56,205.89,98.1,176.5937,104.7313c-.0073.0029-.0131.0078-.0214.0117a2.4354,2.4354,0,0,0-1.84,2.7226c4.7676,31.2,25.9771,47.2237,61.3325,46.3409a2.4235,2.4235,0,0,0,1.4707-.542C279.8037,118.9139,279.9756,57.7977,279.0215,39.8826ZM239.6982,65.7088c6.7383-15.6294,6.0039-32.915-1.9746-49.2251a123.43,123.43,0,0,1,35.6338,17.5117c-8.7666,39.9107-31.91,61.6392-73.8281,68.4732C218.9316,94.1522,232.8857,81.5135,239.6982,65.7088Zm-4.5849,83.2637c-31.4864.5478-50.0191-12.7618-55.1265-39.5782,51.5122-2.7041,81.28-21.6836,94.4067-60.7846C274.415,71.9012,269.8848,120.1727,235.1133,148.9725Z" transform="translate(-0.2051)"/></g></g></svg>