<svg xmlns="http://www.w3.org/2000/svg" viewBox="0 0 355.2539 301.7322"><defs><style>.cls-1{fill:#dff6fd;}.cls-2{fill:#ffae00;}</style></defs><g id="Layer_2" data-name="Layer 2"><g id="graphics"><path class="cls-1" d="M19.57,248.407l9.668-32.08h9.7851L24.17,258.9831H15L.2051,216.3269H9.9609Z" transform="translate(-0.2051)"/><path class="cls-1" d="M51.8262,243.9538v15.0293H43.0371V216.3269H59.6777a19.2523,19.2523,0,0,1,8.4522,1.7578,12.9536,12.9536,0,0,1,5.61,4.9951,13.9326,13.9326,0,0,1,1.9629,7.3682,12.2492,12.2492,0,0,1-4.292,9.8877q-4.2919,3.6182-11.88,3.6181Zm0-7.1191h7.8515a7.72,7.72,0,0,0,5.3174-1.6406,5.9689,5.9689,0,0,0,1.8311-4.6875,7.0363,7.0363,0,0,0-1.8457-5.0684,6.8951,6.8951,0,0,0-5.0977-1.9922H51.8262Z" transform="translate(-0.2051)"/><path class="cls-1" d="M100.6055,250.1941h-15.41l-2.93,8.789H72.92l15.8789-42.6562h8.1446L112.91,258.9831h-9.3457Zm-13.0371-7.1192h10.664l-5.3613-15.9668Z" transform="translate(-0.2051)"/><path class="cls-1" d="M139.0137,247.7917a4.51,4.51,0,0,0-1.7578-3.8232,23.0551,23.0551,0,0,0-6.3282-2.8125,44.8458,44.8458,0,0,1-7.2363-2.915q-7.2663-3.9258-7.2656-10.5762a10.2974,10.2974,0,0,1,1.9482-6.167,12.7083,12.7083,0,0,1,5.5957-4.2334,21.0607,21.0607,0,0,1,8.1885-1.5234,19.1721,19.1721,0,0,1,8.1445,1.6552,12.969,12.969,0,0,1,5.5518,4.6729,12.227,12.227,0,0,1,1.9775,6.8554h-8.789a5.7521,5.7521,0,0,0-1.8457-4.5556,7.5872,7.5872,0,0,0-5.1856-1.626,8.1038,8.1038,0,0,0-5.01,1.3623,4.2968,4.2968,0,0,0-1.7872,3.5889A4.1155,4.1155,0,0,0,127.31,231.18a23.6573,23.6573,0,0,0,6.167,2.6367q7.4993,2.2558,10.9277,5.5957a11.1438,11.1438,0,0,1,3.4277,8.32,10.2657,10.2657,0,0,1-4.1894,8.6866q-4.19,3.1494-11.2793,3.1494a21.7807,21.7807,0,0,1-8.9649-1.8018,14.187,14.187,0,0,1-6.167-4.9365,12.6382,12.6382,0,0,1-2.124-7.2656h8.8184q0,7.06,8.4375,7.06a8.2081,8.2081,0,0,0,4.8926-1.2744A4.1463,4.1463,0,0,0,139.0137,247.7917Z" transform="translate(-0.2051)"/><path class="cls-1" d="M175.8984,247.7917a4.51,4.51,0,0,0-1.7578-3.8232,23.0527,23.0527,0,0,0-6.3281-2.8125,44.8381,44.8381,0,0,1-7.2363-2.915q-7.2664-3.9258-7.2657-10.5762a10.2974,10.2974,0,0,1,1.9483-6.167,12.7077,12.7077,0,0,1,5.5957-4.2334,21.06,21.06,0,0,1,8.1885-1.5234,19.1724,19.1724,0,0,1,8.1445,1.6552,12.969,12.969,0,0,1,5.5518,4.6729,12.2278,12.2278,0,0,1,1.9775,6.8554h-8.7891a5.7518,5.7518,0,0,0-1.8457-4.5556,7.5869,7.5869,0,0,0-5.1855-1.626,8.1041,8.1041,0,0,0-5.01,1.3623,4.2969,4.2969,0,0,0-1.7871,3.5889,4.1156,4.1156,0,0,0,2.0947,3.4863,23.6589,23.6589,0,0,0,6.167,2.6367q7.4993,2.2558,10.9278,5.5957a11.1442,11.1442,0,0,1,3.4277,8.32,10.2655,10.2655,0,0,1-4.19,8.6866q-4.19,3.1494-11.2793,3.1494a21.78,21.78,0,0,1-8.9648-1.8018,14.1865,14.1865,0,0,1-6.167-4.9365,12.6382,12.6382,0,0,1-2.124-7.2656h8.8183q0,7.06,8.4375,7.06a8.2077,8.2077,0,0,0,4.8926-1.2744A4.146,4.146,0,0,0,175.8984,247.7917Z" transform="translate(-0.2051)"/><path class="cls-1" d="M223.8867,246.6785l5.7422-30.3516h8.76l-9.4629,42.6562h-8.8477l-6.9433-28.5351-6.9434,28.5351h-8.8476l-9.4629-42.6562h8.76l5.7715,30.293,7.0313-30.293h7.4414Z" transform="translate(-0.2051)"/><path class="cls-1" d="M278.1738,238.6218a25.7647,25.7647,0,0,1-2.2265,11.0449,16.7686,16.7686,0,0,1-6.3721,7.3243,18.8287,18.8287,0,0,1-18.97.0292,16.9318,16.9318,0,0,1-6.4453-7.28,25,25,0,0,1-2.3145-10.8838v-2.1094a25.6151,25.6151,0,0,1,2.27-11.0889,16.8935,16.8935,0,0,1,6.416-7.3535,18.8022,18.8022,0,0,1,18.9551,0,16.9055,16.9055,0,0,1,6.416,7.3535,25.5568,25.5568,0,0,1,2.2705,11.06Zm-8.9062-1.9336q0-6.7089-2.4024-10.1953a8.4863,8.4863,0,0,0-13.6816-.0439q-2.4024,3.4423-2.4316,10.0927v2.08q0,6.5333,2.4023,10.1367a8.4123,8.4123,0,0,0,13.7109.1319q2.3731-3.4718,2.4024-10.1221Z" transform="translate(-0.2051)"/><path class="cls-1" d="M300.3516,243.3679H293.35v15.6152h-8.7891V216.3269h15.85q7.5585,0,11.66,3.3691t4.1016,9.5215a13.1232,13.1232,0,0,1-1.89,7.28,12.8871,12.8871,0,0,1-5.7275,4.6435l9.2285,17.4317v.41H308.35Zm-7.002-7.1191h7.09a7.2608,7.2608,0,0,0,5.1269-1.6846,6.0213,6.0213,0,0,0,1.8164-4.6436,6.445,6.445,0,0,0-1.7139-4.7461q-1.7138-1.7284-5.2587-1.7285H293.35Z" transform="translate(-0.2051)"/><path class="cls-1" d="M322.8516,258.9831V216.3269h13.125a19.931,19.931,0,0,1,10.0634,2.5342,17.6715,17.6715,0,0,1,6.9288,7.207,22.2412,22.2412,0,0,1,2.49,10.62v1.9629a22.3034,22.3034,0,0,1-2.4463,10.5762,17.52,17.52,0,0,1-6.8994,7.1777,20.0848,20.0848,0,0,1-10.0488,2.5781Zm8.789-35.5371v28.4766h4.2481q5.1563,0,7.8808-3.3691t2.7832-9.6387v-2.2559q0-6.5038-2.6953-9.8584t-7.8808-3.3545Z" transform="translate(-0.2051)"/><path class="cls-2" d="M224.5127,160.82c-19.06.1992-35.2236-7.2988-45.5147-21.1152-12.86-17.2686-15.0376-42.5762-6.1347-71.2627a2.4386,2.4386,0,0,0-1.4346-2.9805c-29.4043-11.4707-53.8857-1.1162-70.8,29.9444a2.4388,2.4388,0,0,0-.2656,1.5459c7.312,45.6533,48.1377,79.3877,83.9048,95.7363a.28.28,0,0,1,.0332.0078,2.4579,2.4579,0,0,0,1.9174.02c13.793-5.8008,28.3916-15.9209,40.05-27.7676A2.4293,2.4293,0,0,0,224.5127,160.82ZM105.292,96.9988c15.2681-27.5429,36.06-36.9375,61.8379-27.9521-11.9038,23.3721-17.2129,43.7734-16.2246,62.3086l0,.0058c.96,18.043,8.1035,34.4864,21.7446,49.9258C142.1841,163.952,111.6968,134.69,105.292,96.9988Zm80.4521,90.6084C166.4248,170,156.8672,152.0106,155.7534,131.1033v-.0058c-.6811-12.7852,1.8364-26.5948,7.6377-41.8116a96.9669,96.9669,0,0,0-.6465,16.7471c.7515,14.0938,4.8965,26.5459,12.3609,36.57,10.1684,13.6514,25.5039,21.6573,43.62,22.9014A123.3409,123.3409,0,0,1,185.7441,187.6072Z" transform="translate(-0.2051)"/><path class="cls-2" d="M141.3765,53.0384c21.3842-2.5044,44.39,8.2612,64.7817,30.3188.0078.0078.0195.0147.0273.0225a2.43,2.43,0,0,0,3.2715.2227c14.9854-12.001,22.1446-26.3125,21.2813-42.5367-.5586-10.48-4.5332-21.8349-11.8145-33.75a2.4452,2.4452,0,0,0-1.2051-1.0029c-43.1923-16.4917-92.82,1.9951-124.8623,24.7964a2.4785,2.4785,0,0,0-1.0034,1.6743,112.9737,112.9737,0,0,0-.6137,19.9575,135.8122,135.8122,0,0,0,4.64,28.6114,2.4287,2.4287,0,0,0,4.4531.5439C109.688,65.2918,124.2642,55.0428,141.3765,53.0384Zm73.8354-42.4805c6.584,10.957,10.1748,21.3032,10.6787,30.7671.7354,13.8125-5.1113,26.169-17.3887,36.76-28.125-43.293-59.4736-59.5723-99.9462-51.3452C138.7974,9.0262,179.375-2.74,215.2119,10.5579ZM99.167,74.5418a123.4421,123.4421,0,0,1-2.648-39.6157c38.9434-12.3657,69.3326-3.187,96.2105,29.6977-16.9009-12.645-34.8242-18.4087-51.9185-16.4067C123.9067,50.1971,109.3057,59.4754,99.167,74.5418Z" transform="translate(-0.2051)"/><path class="cls-2" d="M279.0215,39.8826c-.2276-4.2783-.5391-7.1855-.5391-7.1855a2.5149,2.5149,0,0,0-.9394-1.668c-11.9239-9.0469-27.9873-16.6279-44.0733-20.8a2.43,2.43,0,0,0-2.6992,3.5855c9.7041,16.4067,11.29,34.1533,4.4707,49.9736C226.7168,83.56,205.89,98.1,176.5937,104.7313c-.0073.0029-.0131.0078-.0214.0117a2.4354,2.4354,0,0,0-1.84,2.7226c4.7676,31.2,25.9771,47.2237,61.3325,46.3409a2.4235,2.4235,0,0,0,1.4707-.542C279.8037,118.9139,279.9756,57.7977,279.0215,39.8826ZM239.6982,65.7088c6.7383-15.6294,6.0039-32.915-1.9746-49.2251a123.43,123.43,0,0,1,35.6338,17.5117c-8.7666,39.9107-31.91,61.6392-73.8281,68.4732C218.9316,94.1522,232.8857,81.5135,239.6982,65.7088Zm-4.5849,83.2637c-31.4864.5478-50.0191-12.7618-55.1265-39.5782,51.5122-2.7041,81.28-21.6836,94.4067-60.7846C274.415,71.9012,269.8848,120.1727,235.1133,148.9725Z" transform="translate(-0.2051)"/><path class="cls-1" d="M69.5234,285.824a13.2387,13.2387,0,0,1-5.2661-2.5557,4.8864,4.8864,0,0,1-1.6479-3.7432,5.157,5.157,0,0,1,2.0141-4.167A8,8,0,0,1,69.86,273.71a8.7378,8.7378,0,0,1,3.9184.85,6.4429,6.4429,0,0,1,2.666,2.3438A5.9928,5.9928,0,0,1,77.39,280.17H74.5625a3.9008,3.9008,0,0,0-1.2305-3.0508A5.0062,5.0062,0,0,0,69.86,276.01a5.1241,5.1241,0,0,0-3.2447.917,3.0605,3.0605,0,0,0-1.1645,2.5459,2.7527,2.7527,0,0,0,1.1059,2.209,10.8507,10.8507,0,0,0,3.7647,1.6513,17.5172,17.5172,0,0,1,4.16,1.6485,6.3218,6.3218,0,0,1,2.2266,2.1025,5.3652,5.3652,0,0,1,.7251,2.8272,4.9809,4.9809,0,0,1-2.0215,4.1523,8.6131,8.6131,0,0,1-5.4053,1.5606,10.0411,10.0411,0,0,1-4.1015-.8418,6.903,6.903,0,0,1-2.937-2.3077,5.63,5.63,0,0,1-1.0328-3.3251h2.8272a3.6755,3.6755,0,0,0,1.4282,3.0546,6.0194,6.0194,0,0,0,3.8159,1.12,5.5286,5.5286,0,0,0,3.4131-.9082,2.95,2.95,0,0,0,1.1865-2.4756,2.894,2.894,0,0,0-1.0986-2.4239A12.6415,12.6415,0,0,0,69.5234,285.824Z" transform="translate(-0.2051)"/><path class="cls-1" d="M90.3975,295.3308a5.6918,5.6918,0,0,1-.3809-1.67,6.0466,6.0466,0,0,1-4.5117,1.9629,5.59,5.59,0,0,1-3.8452-1.3262,4.2866,4.2866,0,0,1-1.5015-3.3613,4.4825,4.4825,0,0,1,1.8823-3.8457,8.8817,8.8817,0,0,1,5.2954-1.3692h2.6368v-1.2451a3.042,3.042,0,0,0-.85-2.2627,3.4146,3.4146,0,0,0-2.5048-.8428,3.9517,3.9517,0,0,0-2.4317.7325,2.158,2.158,0,0,0-.9814,1.7724H80.4805a3.743,3.743,0,0,1,.8423-2.293,5.7566,5.7566,0,0,1,2.2851-1.75,7.6892,7.6892,0,0,1,3.1714-.6445,6.27,6.27,0,0,1,4.292,1.3692,4.9431,4.9431,0,0,1,1.6113,3.7724v7.2949a8.9186,8.9186,0,0,0,.5567,3.4717v.2344ZM85.9,293.2654a4.7634,4.7634,0,0,0,2.417-.6592,3.9879,3.9879,0,0,0,1.6553-1.7139V287.64H87.8486q-4.98,0-4.98,2.915a2.4671,2.4671,0,0,0,.85,1.9922A3.2655,3.2655,0,0,0,85.9,293.2654Z" transform="translate(-0.2051)"/><path class="cls-1" d="M98.2637,295.3308V281.5759H95.7588v-2.0947h2.5049v-1.626a5.397,5.397,0,0,1,1.3623-3.94,5.1459,5.1459,0,0,1,3.8525-1.3916,7.1958,7.1958,0,0,1,1.86.247l-.1465,2.1846a7.783,7.783,0,0,0-1.4649-.1318,2.6426,2.6426,0,0,0-2.0361.7715,3.13,3.13,0,0,0-.7178,2.2119v1.6748h3.3838v2.0947h-3.3838v13.7549Z" transform="translate(-0.2051)"/><path class="cls-1" d="M113.5713,295.6238a6.9223,6.9223,0,0,1-5.2442-2.1172,7.8538,7.8538,0,0,1-2.0214-5.6612v-.498a9.517,9.517,0,0,1,.9008-4.2119,7.04,7.04,0,0,1,2.52-2.9,6.3417,6.3417,0,0,1,3.5083-1.0469,5.9361,5.9361,0,0,1,4.8047,2.0361,8.8163,8.8163,0,0,1,1.7138,5.83v1.128H109.0156a5.635,5.635,0,0,0,1.37,3.7871,4.3046,4.3046,0,0,0,3.3325,1.4423,4.72,4.72,0,0,0,2.4316-.5859,6.11,6.11,0,0,0,1.7432-1.5527l1.6553,1.289A6.6557,6.6557,0,0,1,113.5713,295.6238Zm-.3369-14.209a3.6176,3.6176,0,0,0-2.7539,1.1933,5.8072,5.8072,0,0,0-1.377,3.3477h7.94v-.2051A5.1659,5.1659,0,0,0,115.93,282.55,3.4062,3.4062,0,0,0,113.2344,281.4148Z" transform="translate(-0.2051)"/><path class="cls-1" d="M126.5645,275.6433v3.8379h2.9589v2.0947h-2.9589v9.8418a2.1978,2.1978,0,0,0,.3955,1.43,1.6656,1.6656,0,0,0,1.3476.4766,6.5609,6.5609,0,0,0,1.2891-.1758v2.1845a7.89,7.89,0,0,1-2.08.2911,3.375,3.375,0,0,1-2.7393-1.0987,4.72,4.72,0,0,1-.9228-3.12v-9.8291h-2.8857v-2.0947h2.8857v-3.8379Z" transform="translate(-0.2051)"/><path class="cls-1" d="M137.873,291.3611l3.6915-11.88h2.9l-6.372,18.2959q-1.48,3.955-4.7022,3.9551l-.5127-.044-1.0107-.19v-2.1973l.7324.0586a3.606,3.606,0,0,0,2.146-.5566,4.0281,4.0281,0,0,0,1.2671-2.0362l.6006-1.6113-5.6543-15.6738h2.959Z" transform="translate(-0.2051)"/><path class="cls-1" d="M170.4219,288.5632a7.8482,7.8482,0,0,1-2.4976,5.2227,8.1847,8.1847,0,0,1-5.5884,1.8379,7.5158,7.5158,0,0,1-6.0571-2.71,10.9028,10.9028,0,0,1-2.2778-7.251V283.612a12.1517,12.1517,0,0,1,1.062-5.2294,7.9256,7.9256,0,0,1,3.01-3.4639,8.3733,8.3733,0,0,1,4.5118-1.209,7.7109,7.7109,0,0,1,5.4492,1.8965,7.9443,7.9443,0,0,1,2.3877,5.2519h-2.8272a6.1262,6.1262,0,0,0-1.5893-3.7021,4.806,4.806,0,0,0-3.42-1.1465,5.0326,5.0326,0,0,0-4.2261,1.9941,9.1537,9.1537,0,0,0-1.5308,5.6739v2.0664a9.4069,9.4069,0,0,0,1.45,5.5273,4.6865,4.6865,0,0,0,4.0576,2.0528,5.4121,5.4121,0,0,0,3.5962-1.0616,5.8945,5.8945,0,0,0,1.6626-3.6992Z" transform="translate(-0.2051)"/><path class="cls-1" d="M173.1172,287.26a9.3621,9.3621,0,0,1,.9155-4.1894,6.83,6.83,0,0,1,2.5488-2.8711,6.938,6.938,0,0,1,3.7281-1.0108,6.6842,6.6842,0,0,1,5.2368,2.2412,8.62,8.62,0,0,1,1.9995,5.9619v.19a9.4456,9.4456,0,0,1-.8857,4.1533,6.7331,6.7331,0,0,1-2.5347,2.8633,7.0179,7.0179,0,0,1-3.7866,1.0254,6.6675,6.6675,0,0,1-5.2222-2.2412,8.5793,8.5793,0,0,1-2-5.9327Zm2.7246.3223a6.7809,6.7809,0,0,0,1.2231,4.2334,4.1455,4.1455,0,0,0,6.5552-.0215,7.4159,7.4159,0,0,0,1.2158-4.5342,6.7673,6.7673,0,0,0-1.2378-4.2256,3.9353,3.9353,0,0,0-3.2885-1.6191,3.8912,3.8912,0,0,0-3.2373,1.5967A7.3594,7.3594,0,0,0,175.8418,287.5818Z" transform="translate(-0.2051)"/><path class="cls-1" d="M193.4932,279.4812l.0732,1.7578a5.8533,5.8533,0,0,1,4.7022-2.0508q3.3252,0,4.5263,2.5488a6.0072,6.0072,0,0,1,2.0586-1.8457,6.0773,6.0773,0,0,1,2.9951-.7031q5.2149,0,5.3028,5.5225v10.62h-2.71v-10.459a3.6378,3.6378,0,0,0-.7764-2.541,3.419,3.419,0,0,0-2.6074-.8428,3.5893,3.5893,0,0,0-2.5049.9014,3.6514,3.6514,0,0,0-1.1572,2.4238v10.5176h-2.7246V284.9451q0-3.4571-3.3838-3.4571a3.626,3.626,0,0,0-3.6475,2.2705v11.5723h-2.71v-15.85Z" transform="translate(-0.2051)"/><path class="cls-1" d="M223.8154,295.6238a6.9219,6.9219,0,0,1-5.2441-2.1172,7.8535,7.8535,0,0,1-2.0215-5.6612v-.498a9.5158,9.5158,0,0,1,.9014-4.2119,7.04,7.04,0,0,1,2.5195-2.9,6.34,6.34,0,0,1,3.5078-1.0469,5.9359,5.9359,0,0,1,4.8047,2.0361,8.8158,8.8158,0,0,1,1.7139,5.83v1.128H219.26a5.6353,5.6353,0,0,0,1.37,3.7871,4.3037,4.3037,0,0,0,3.332,1.4423,4.7205,4.7205,0,0,0,2.4317-.5859,6.11,6.11,0,0,0,1.7431-1.5527l1.6553,1.289A6.6555,6.6555,0,0,1,223.8154,295.6238Zm-.3369-14.209a3.6177,3.6177,0,0,0-2.7539,1.1933,5.8065,5.8065,0,0,0-1.3769,3.3477h7.9394v-.2051a5.1653,5.1653,0,0,0-1.1133-3.2012A3.406,3.406,0,0,0,223.4785,281.4148Z" transform="translate(-0.2051)"/><path class="cls-1" d="M242.36,291.1267a1.9938,1.9938,0,0,0-.8272-1.7061,7.9678,7.9678,0,0,0-2.8857-1.0478,13.6415,13.6415,0,0,1-3.2666-1.0547,4.647,4.647,0,0,1-1.7871-1.4648,3.5042,3.5042,0,0,1-.5792-2.0215,4.112,4.112,0,0,1,1.6485-3.2959,6.4339,6.4339,0,0,1,4.2109-1.3477,6.6244,6.6244,0,0,1,4.3731,1.3916,4.42,4.42,0,0,1,1.6767,3.56h-2.7246a2.4461,2.4461,0,0,0-.9443-1.919,3.5415,3.5415,0,0,0-2.3809-.8056,3.7047,3.7047,0,0,0-2.3144.6445,2.0287,2.0287,0,0,0-.835,1.6846,1.6439,1.6439,0,0,0,.7764,1.48,9.5569,9.5569,0,0,0,2.8056.9521,14.614,14.614,0,0,1,3.2881,1.084,4.8,4.8,0,0,1,1.8682,1.5166,3.7258,3.7258,0,0,1,.6074,2.16,4.0572,4.0572,0,0,1-1.6992,3.4062,7.1273,7.1273,0,0,1-4.4092,1.2813,7.98,7.98,0,0,1-3.3691-.6739,5.4707,5.4707,0,0,1-2.292-1.8828,4.5332,4.5332,0,0,1-.8281-2.6142h2.71a2.807,2.807,0,0,0,1.0918,2.1611,4.2321,4.2321,0,0,0,2.6875.7978,4.3726,4.3726,0,0,0,2.4688-.622A1.9133,1.9133,0,0,0,242.36,291.1267Z" transform="translate(-0.2051)"/><path class="cls-1" d="M268.2148,285.9118h-8.95v9.419h-2.8125V274.0027H269.665v2.3h-10.4v7.31h8.95Z" transform="translate(-0.2051)"/><path class="cls-1" d="M272.624,275.2771a1.6181,1.6181,0,0,1,.4033-1.1133,1.5117,1.5117,0,0,1,1.1934-.4541,1.5363,1.5363,0,0,1,1.2012.4541,1.6006,1.6006,0,0,1,.41,1.1133,1.5481,1.5481,0,0,1-.41,1.0986,1.5639,1.5639,0,0,1-1.2012.44,1.5386,1.5386,0,0,1-1.1934-.44A1.5647,1.5647,0,0,1,272.624,275.2771Zm2.93,20.0537h-2.71v-15.85h2.71Z" transform="translate(-0.2051)"/><path class="cls-1" d="M287.5508,281.9128a8.128,8.128,0,0,0-1.333-.1025,3.5711,3.5711,0,0,0-3.6182,2.2705v11.25h-2.71v-15.85h2.6368l.0439,1.831a4.22,4.22,0,0,1,3.7793-2.124,2.7689,2.7689,0,0,1,1.2012.2051Z" transform="translate(-0.2051)"/><path class="cls-1" d="M299.27,291.1267a1.994,1.994,0,0,0-.8271-1.7061,7.9677,7.9677,0,0,0-2.8858-1.0478,13.6446,13.6446,0,0,1-3.2666-1.0547,4.6485,4.6485,0,0,1-1.7871-1.4648,3.5049,3.5049,0,0,1-.5791-2.0215,4.1117,4.1117,0,0,1,1.6485-3.2959,6.4339,6.4339,0,0,1,4.2109-1.3477,6.6244,6.6244,0,0,1,4.3731,1.3916,4.42,4.42,0,0,1,1.6767,3.56h-2.7246a2.4464,2.4464,0,0,0-.9443-1.919,3.5416,3.5416,0,0,0-2.3809-.8056,3.7047,3.7047,0,0,0-2.3144.6445,2.0287,2.0287,0,0,0-.835,1.6846,1.6439,1.6439,0,0,0,.7764,1.48,9.5558,9.5558,0,0,0,2.8056.9521,14.614,14.614,0,0,1,3.2881,1.084,4.8,4.8,0,0,1,1.8682,1.5166,3.7266,3.7266,0,0,1,.6074,2.16,4.0572,4.0572,0,0,1-1.6992,3.4062,7.1275,7.1275,0,0,1-4.4092,1.2813,7.98,7.98,0,0,1-3.3691-.6739,5.4707,5.4707,0,0,1-2.292-1.8828,4.5333,4.5333,0,0,1-.8282-2.6142h2.71a2.807,2.807,0,0,0,1.0918,2.1611,4.2321,4.2321,0,0,0,2.6875.7978,4.372,4.372,0,0,0,2.4687-.622A1.9131,1.9131,0,0,0,299.27,291.1267Z" transform="translate(-0.2051)"/><path class="cls-1" d="M309.1865,275.6433v3.8379h2.959v2.0947h-2.959v9.8418a2.1984,2.1984,0,0,0,.3955,1.43,1.6658,1.6658,0,0,0,1.3477.4766,6.5609,6.5609,0,0,0,1.2891-.1758v2.1845a7.89,7.89,0,0,1-2.08.2911,3.3747,3.3747,0,0,1-2.7393-1.0987,4.72,4.72,0,0,1-.9228-3.12v-9.8291h-2.8858v-2.0947h2.8858v-3.8379Z" transform="translate(-0.2051)"/></g></g></svg>